<mxfile host="app.diagrams.net" agent="Mozilla/5.0 (Macintosh; Intel Mac OS X 10_15_7) AppleWebKit/605.1.15 (KHTML, like Gecko) Version/18.1.1 Safari/605.1.15" version="26.0.5">
  <diagram name="Page-1" id="lc_ZipxtUscGul3Hz3YA">
    <mxGraphModel dx="2074" dy="1973" grid="1" gridSize="10" guides="1" tooltips="1" connect="1" arrows="1" fold="1" page="1" pageScale="1" pageWidth="827" pageHeight="1169" math="0" shadow="0">
      <root>
        <mxCell id="0" />
        <mxCell id="1" parent="0" />
        <mxCell id="0V02rStvW5Do8ERGr07q-1" value="" style="sketch=0;outlineConnect=0;fontColor=#232F3E;gradientColor=none;fillColor=#232F3D;strokeColor=none;dashed=0;verticalLabelPosition=bottom;verticalAlign=top;align=center;html=1;fontSize=12;fontStyle=0;aspect=fixed;pointerEvents=1;shape=mxgraph.aws4.users;" vertex="1" parent="1">
          <mxGeometry x="521" y="-150" width="78" height="78" as="geometry" />
        </mxCell>
        <mxCell id="0V02rStvW5Do8ERGr07q-2" value="AWS Cloud" style="points=[[0,0],[0.25,0],[0.5,0],[0.75,0],[1,0],[1,0.25],[1,0.5],[1,0.75],[1,1],[0.75,1],[0.5,1],[0.25,1],[0,1],[0,0.75],[0,0.5],[0,0.25]];outlineConnect=0;gradientColor=none;html=1;whiteSpace=wrap;fontSize=12;fontStyle=0;container=1;pointerEvents=0;collapsible=0;recursiveResize=0;shape=mxgraph.aws4.group;grIcon=mxgraph.aws4.group_aws_cloud_alt;strokeColor=#232F3E;fillColor=none;verticalAlign=top;align=left;spacingLeft=30;fontColor=#232F3E;dashed=0;" vertex="1" parent="1">
          <mxGeometry x="230" y="30" width="650" height="729" as="geometry" />
        </mxCell>
        <mxCell id="0V02rStvW5Do8ERGr07q-8" value="Private subnet" style="points=[[0,0],[0.25,0],[0.5,0],[0.75,0],[1,0],[1,0.25],[1,0.5],[1,0.75],[1,1],[0.75,1],[0.5,1],[0.25,1],[0,1],[0,0.75],[0,0.5],[0,0.25]];outlineConnect=0;gradientColor=none;html=1;whiteSpace=wrap;fontSize=12;fontStyle=0;container=1;pointerEvents=0;collapsible=0;recursiveResize=0;shape=mxgraph.aws4.group;grIcon=mxgraph.aws4.group_security_group;grStroke=0;strokeColor=#00A4A6;fillColor=#E6F6F7;verticalAlign=top;align=left;spacingLeft=30;fontColor=#147EBA;dashed=0;" vertex="1" parent="0V02rStvW5Do8ERGr07q-2">
          <mxGeometry x="93" y="294.5" width="160" height="160" as="geometry" />
        </mxCell>
        <mxCell id="0V02rStvW5Do8ERGr07q-20" value="" style="sketch=0;points=[[0,0,0],[0.25,0,0],[0.5,0,0],[0.75,0,0],[1,0,0],[0,1,0],[0.25,1,0],[0.5,1,0],[0.75,1,0],[1,1,0],[0,0.25,0],[0,0.5,0],[0,0.75,0],[1,0.25,0],[1,0.5,0],[1,0.75,0]];outlineConnect=0;fontColor=#232F3E;fillColor=#ED7100;strokeColor=#ffffff;dashed=0;verticalLabelPosition=bottom;verticalAlign=top;align=center;html=1;fontSize=12;fontStyle=0;aspect=fixed;shape=mxgraph.aws4.resourceIcon;resIcon=mxgraph.aws4.ec2;" vertex="1" parent="0V02rStvW5Do8ERGr07q-8">
          <mxGeometry x="41" y="41" width="78" height="78" as="geometry" />
        </mxCell>
        <mxCell id="0V02rStvW5Do8ERGr07q-11" value="Public subnet" style="points=[[0,0],[0.25,0],[0.5,0],[0.75,0],[1,0],[1,0.25],[1,0.5],[1,0.75],[1,1],[0.75,1],[0.5,1],[0.25,1],[0,1],[0,0.75],[0,0.5],[0,0.25]];outlineConnect=0;gradientColor=none;html=1;whiteSpace=wrap;fontSize=12;fontStyle=0;container=1;pointerEvents=0;collapsible=0;recursiveResize=0;shape=mxgraph.aws4.group;grIcon=mxgraph.aws4.group_security_group;grStroke=0;strokeColor=#7AA116;fillColor=#F2F6E8;verticalAlign=top;align=left;spacingLeft=30;fontColor=#248814;dashed=0;" vertex="1" parent="0V02rStvW5Do8ERGr07q-2">
          <mxGeometry x="93" y="94.5" width="160" height="160" as="geometry" />
        </mxCell>
        <mxCell id="0V02rStvW5Do8ERGr07q-18" value="" style="sketch=0;points=[[0,0,0],[0.25,0,0],[0.5,0,0],[0.75,0,0],[1,0,0],[0,1,0],[0.25,1,0],[0.5,1,0],[0.75,1,0],[1,1,0],[0,0.25,0],[0,0.5,0],[0,0.75,0],[1,0.25,0],[1,0.5,0],[1,0.75,0]];outlineConnect=0;fontColor=#232F3E;fillColor=#ED7100;strokeColor=#ffffff;dashed=0;verticalLabelPosition=bottom;verticalAlign=top;align=center;html=1;fontSize=12;fontStyle=0;aspect=fixed;shape=mxgraph.aws4.resourceIcon;resIcon=mxgraph.aws4.ec2;" vertex="1" parent="0V02rStvW5Do8ERGr07q-11">
          <mxGeometry x="41" y="41" width="78" height="78" as="geometry" />
        </mxCell>
        <mxCell id="0V02rStvW5Do8ERGr07q-14" value="Private subnet" style="points=[[0,0],[0.25,0],[0.5,0],[0.75,0],[1,0],[1,0.25],[1,0.5],[1,0.75],[1,1],[0.75,1],[0.5,1],[0.25,1],[0,1],[0,0.75],[0,0.5],[0,0.25]];outlineConnect=0;gradientColor=none;html=1;whiteSpace=wrap;fontSize=12;fontStyle=0;container=1;pointerEvents=0;collapsible=0;recursiveResize=0;shape=mxgraph.aws4.group;grIcon=mxgraph.aws4.group_security_group;grStroke=0;strokeColor=#00A4A6;fillColor=#E6F6F7;verticalAlign=top;align=left;spacingLeft=30;fontColor=#147EBA;dashed=0;" vertex="1" parent="0V02rStvW5Do8ERGr07q-2">
          <mxGeometry x="413" y="294.5" width="160" height="160" as="geometry" />
        </mxCell>
        <mxCell id="0V02rStvW5Do8ERGr07q-21" value="" style="sketch=0;points=[[0,0,0],[0.25,0,0],[0.5,0,0],[0.75,0,0],[1,0,0],[0,1,0],[0.25,1,0],[0.5,1,0],[0.75,1,0],[1,1,0],[0,0.25,0],[0,0.5,0],[0,0.75,0],[1,0.25,0],[1,0.5,0],[1,0.75,0]];outlineConnect=0;fontColor=#232F3E;fillColor=#ED7100;strokeColor=#ffffff;dashed=0;verticalLabelPosition=bottom;verticalAlign=top;align=center;html=1;fontSize=12;fontStyle=0;aspect=fixed;shape=mxgraph.aws4.resourceIcon;resIcon=mxgraph.aws4.ec2;" vertex="1" parent="0V02rStvW5Do8ERGr07q-14">
          <mxGeometry x="41" y="40.5" width="78" height="78" as="geometry" />
        </mxCell>
        <mxCell id="0V02rStvW5Do8ERGr07q-9" value="Private subnet" style="points=[[0,0],[0.25,0],[0.5,0],[0.75,0],[1,0],[1,0.25],[1,0.5],[1,0.75],[1,1],[0.75,1],[0.5,1],[0.25,1],[0,1],[0,0.75],[0,0.5],[0,0.25]];outlineConnect=0;gradientColor=none;html=1;whiteSpace=wrap;fontSize=12;fontStyle=0;container=1;pointerEvents=0;collapsible=0;recursiveResize=0;shape=mxgraph.aws4.group;grIcon=mxgraph.aws4.group_security_group;grStroke=0;strokeColor=#00A4A6;fillColor=#E6F6F7;verticalAlign=top;align=left;spacingLeft=30;fontColor=#147EBA;dashed=0;" vertex="1" parent="0V02rStvW5Do8ERGr07q-2">
          <mxGeometry x="93" y="494.5" width="165.5" height="160" as="geometry" />
        </mxCell>
        <mxCell id="0V02rStvW5Do8ERGr07q-4" value="" style="sketch=0;points=[[0,0,0],[0.25,0,0],[0.5,0,0],[0.75,0,0],[1,0,0],[0,1,0],[0.25,1,0],[0.5,1,0],[0.75,1,0],[1,1,0],[0,0.25,0],[0,0.5,0],[0,0.75,0],[1,0.25,0],[1,0.5,0],[1,0.75,0]];outlineConnect=0;fontColor=#232F3E;fillColor=#C925D1;strokeColor=#ffffff;dashed=0;verticalLabelPosition=bottom;verticalAlign=top;align=center;html=1;fontSize=12;fontStyle=0;aspect=fixed;shape=mxgraph.aws4.resourceIcon;resIcon=mxgraph.aws4.rds;" vertex="1" parent="0V02rStvW5Do8ERGr07q-9">
          <mxGeometry x="41" y="41" width="78" height="78" as="geometry" />
        </mxCell>
        <mxCell id="0V02rStvW5Do8ERGr07q-15" value="Private subnet" style="points=[[0,0],[0.25,0],[0.5,0],[0.75,0],[1,0],[1,0.25],[1,0.5],[1,0.75],[1,1],[0.75,1],[0.5,1],[0.25,1],[0,1],[0,0.75],[0,0.5],[0,0.25]];outlineConnect=0;gradientColor=none;html=1;whiteSpace=wrap;fontSize=12;fontStyle=0;container=1;pointerEvents=0;collapsible=0;recursiveResize=0;shape=mxgraph.aws4.group;grIcon=mxgraph.aws4.group_security_group;grStroke=0;strokeColor=#00A4A6;fillColor=#E6F6F7;verticalAlign=top;align=left;spacingLeft=30;fontColor=#147EBA;dashed=0;" vertex="1" parent="0V02rStvW5Do8ERGr07q-2">
          <mxGeometry x="413" y="494.5" width="160" height="160" as="geometry" />
        </mxCell>
        <mxCell id="0V02rStvW5Do8ERGr07q-24" value="" style="sketch=0;points=[[0,0,0],[0.25,0,0],[0.5,0,0],[0.75,0,0],[1,0,0],[0,1,0],[0.25,1,0],[0.5,1,0],[0.75,1,0],[1,1,0],[0,0.25,0],[0,0.5,0],[0,0.75,0],[1,0.25,0],[1,0.5,0],[1,0.75,0]];outlineConnect=0;fillColor=#e1d5e7;strokeColor=#9673a6;dashed=0;verticalLabelPosition=bottom;verticalAlign=top;align=center;html=1;fontSize=12;fontStyle=0;aspect=fixed;shape=mxgraph.aws4.resourceIcon;resIcon=mxgraph.aws4.rds;" vertex="1" parent="0V02rStvW5Do8ERGr07q-15">
          <mxGeometry x="41" y="41" width="78" height="78" as="geometry" />
        </mxCell>
        <mxCell id="0V02rStvW5Do8ERGr07q-16" value="Public subnet" style="points=[[0,0],[0.25,0],[0.5,0],[0.75,0],[1,0],[1,0.25],[1,0.5],[1,0.75],[1,1],[0.75,1],[0.5,1],[0.25,1],[0,1],[0,0.75],[0,0.5],[0,0.25]];outlineConnect=0;gradientColor=none;html=1;whiteSpace=wrap;fontSize=12;fontStyle=0;container=1;pointerEvents=0;collapsible=0;recursiveResize=0;shape=mxgraph.aws4.group;grIcon=mxgraph.aws4.group_security_group;grStroke=0;strokeColor=#7AA116;fillColor=#F2F6E8;verticalAlign=top;align=left;spacingLeft=30;fontColor=#248814;dashed=0;" vertex="1" parent="0V02rStvW5Do8ERGr07q-2">
          <mxGeometry x="413" y="94.5" width="160" height="160" as="geometry" />
        </mxCell>
        <mxCell id="0V02rStvW5Do8ERGr07q-19" value="" style="sketch=0;points=[[0,0,0],[0.25,0,0],[0.5,0,0],[0.75,0,0],[1,0,0],[0,1,0],[0.25,1,0],[0.5,1,0],[0.75,1,0],[1,1,0],[0,0.25,0],[0,0.5,0],[0,0.75,0],[1,0.25,0],[1,0.5,0],[1,0.75,0]];outlineConnect=0;fontColor=#232F3E;fillColor=#ED7100;strokeColor=#ffffff;dashed=0;verticalLabelPosition=bottom;verticalAlign=top;align=center;html=1;fontSize=12;fontStyle=0;aspect=fixed;shape=mxgraph.aws4.resourceIcon;resIcon=mxgraph.aws4.ec2;" vertex="1" parent="0V02rStvW5Do8ERGr07q-16">
          <mxGeometry x="41" y="41" width="78" height="78" as="geometry" />
        </mxCell>
        <mxCell id="0V02rStvW5Do8ERGr07q-31" value="" style="edgeStyle=orthogonalEdgeStyle;html=1;endArrow=block;elbow=vertical;startArrow=block;endFill=1;strokeColor=default;rounded=0;exitX=0.5;exitY=1;exitDx=0;exitDy=0;exitPerimeter=0;entryX=0.5;entryY=0;entryDx=0;entryDy=0;entryPerimeter=0;startFill=1;" edge="1" parent="0V02rStvW5Do8ERGr07q-16" target="0V02rStvW5Do8ERGr07q-21">
          <mxGeometry width="100" relative="1" as="geometry">
            <mxPoint x="79.57999999999993" y="120" as="sourcePoint" />
            <mxPoint x="79.57999999999993" y="233" as="targetPoint" />
          </mxGeometry>
        </mxCell>
        <mxCell id="0V02rStvW5Do8ERGr07q-7" value="" style="sketch=0;outlineConnect=0;fontColor=#232F3E;gradientColor=none;fillColor=#8C4FFF;strokeColor=none;dashed=0;verticalLabelPosition=bottom;verticalAlign=top;align=center;html=1;fontSize=12;fontStyle=0;aspect=fixed;pointerEvents=1;shape=mxgraph.aws4.application_load_balancer;" vertex="1" parent="0V02rStvW5Do8ERGr07q-2">
          <mxGeometry x="293" y="138.5" width="78" height="78" as="geometry" />
        </mxCell>
        <mxCell id="0V02rStvW5Do8ERGr07q-26" value="" style="edgeStyle=orthogonalEdgeStyle;html=1;endArrow=none;elbow=vertical;startArrow=block;startFill=1;strokeColor=#545B64;rounded=0;" edge="1" parent="0V02rStvW5Do8ERGr07q-2">
          <mxGeometry width="100" relative="1" as="geometry">
            <mxPoint x="253" y="178.5" as="sourcePoint" />
            <mxPoint x="293" y="178.5" as="targetPoint" />
          </mxGeometry>
        </mxCell>
        <mxCell id="0V02rStvW5Do8ERGr07q-27" value="" style="edgeStyle=orthogonalEdgeStyle;html=1;endArrow=block;elbow=vertical;startArrow=none;endFill=1;strokeColor=#545B64;rounded=0;" edge="1" parent="0V02rStvW5Do8ERGr07q-2">
          <mxGeometry width="100" relative="1" as="geometry">
            <mxPoint x="373" y="178.5" as="sourcePoint" />
            <mxPoint x="423" y="178.5" as="targetPoint" />
          </mxGeometry>
        </mxCell>
        <mxCell id="0V02rStvW5Do8ERGr07q-29" value="" style="edgeStyle=orthogonalEdgeStyle;html=1;endArrow=block;elbow=vertical;startArrow=none;endFill=1;strokeColor=#545B64;rounded=0;" edge="1" parent="0V02rStvW5Do8ERGr07q-2" source="0V02rStvW5Do8ERGr07q-12" target="0V02rStvW5Do8ERGr07q-7">
          <mxGeometry width="100" relative="1" as="geometry">
            <mxPoint x="332" y="52.499111819631025" as="sourcePoint" />
            <mxPoint x="383" y="4.5" as="targetPoint" />
          </mxGeometry>
        </mxCell>
        <mxCell id="0V02rStvW5Do8ERGr07q-30" value="" style="edgeStyle=orthogonalEdgeStyle;html=1;endArrow=block;elbow=vertical;startArrow=none;endFill=1;strokeColor=#545B64;rounded=0;exitX=0.5;exitY=1;exitDx=0;exitDy=0;exitPerimeter=0;" edge="1" parent="0V02rStvW5Do8ERGr07q-2" source="0V02rStvW5Do8ERGr07q-18" target="0V02rStvW5Do8ERGr07q-20">
          <mxGeometry width="100" relative="1" as="geometry">
            <mxPoint x="173" y="254.5" as="sourcePoint" />
            <mxPoint x="273" y="254.5" as="targetPoint" />
          </mxGeometry>
        </mxCell>
        <mxCell id="0V02rStvW5Do8ERGr07q-33" style="edgeStyle=orthogonalEdgeStyle;rounded=0;orthogonalLoop=1;jettySize=auto;html=1;exitX=0.5;exitY=1;exitDx=0;exitDy=0;exitPerimeter=0;entryX=0.5;entryY=0;entryDx=0;entryDy=0;entryPerimeter=0;" edge="1" parent="0V02rStvW5Do8ERGr07q-2" source="0V02rStvW5Do8ERGr07q-21" target="0V02rStvW5Do8ERGr07q-4">
          <mxGeometry relative="1" as="geometry" />
        </mxCell>
        <mxCell id="0V02rStvW5Do8ERGr07q-35" style="edgeStyle=orthogonalEdgeStyle;rounded=0;orthogonalLoop=1;jettySize=auto;html=1;exitX=0.5;exitY=1;exitDx=0;exitDy=0;exitPerimeter=0;" edge="1" parent="0V02rStvW5Do8ERGr07q-2" source="0V02rStvW5Do8ERGr07q-20" target="0V02rStvW5Do8ERGr07q-4">
          <mxGeometry relative="1" as="geometry" />
        </mxCell>
        <mxCell id="0V02rStvW5Do8ERGr07q-38" value="Region" style="points=[[0,0],[0.25,0],[0.5,0],[0.75,0],[1,0],[1,0.25],[1,0.5],[1,0.75],[1,1],[0.75,1],[0.5,1],[0.25,1],[0,1],[0,0.75],[0,0.5],[0,0.25]];outlineConnect=0;gradientColor=none;html=1;whiteSpace=wrap;fontSize=12;fontStyle=0;container=1;pointerEvents=0;collapsible=0;recursiveResize=0;shape=mxgraph.aws4.group;grIcon=mxgraph.aws4.group_region;strokeColor=#00A4A6;fillColor=none;verticalAlign=top;align=left;spacingLeft=30;fontColor=#147EBA;dashed=1;" vertex="1" parent="0V02rStvW5Do8ERGr07q-2">
          <mxGeometry x="73" y="54.5" width="200" height="620" as="geometry" />
        </mxCell>
        <mxCell id="0V02rStvW5Do8ERGr07q-39" value="Region" style="points=[[0,0],[0.25,0],[0.5,0],[0.75,0],[1,0],[1,0.25],[1,0.5],[1,0.75],[1,1],[0.75,1],[0.5,1],[0.25,1],[0,1],[0,0.75],[0,0.5],[0,0.25]];outlineConnect=0;gradientColor=none;html=1;whiteSpace=wrap;fontSize=12;fontStyle=0;container=1;pointerEvents=0;collapsible=0;recursiveResize=0;shape=mxgraph.aws4.group;grIcon=mxgraph.aws4.group_region;strokeColor=#00A4A6;fillColor=none;verticalAlign=top;align=left;spacingLeft=30;fontColor=#147EBA;dashed=1;" vertex="1" parent="0V02rStvW5Do8ERGr07q-2">
          <mxGeometry x="393" y="54.5" width="200" height="620" as="geometry" />
        </mxCell>
        <mxCell id="0V02rStvW5Do8ERGr07q-40" value="VPC" style="points=[[0,0],[0.25,0],[0.5,0],[0.75,0],[1,0],[1,0.25],[1,0.5],[1,0.75],[1,1],[0.75,1],[0.5,1],[0.25,1],[0,1],[0,0.75],[0,0.5],[0,0.25]];outlineConnect=0;gradientColor=none;html=1;whiteSpace=wrap;fontSize=12;fontStyle=0;container=1;pointerEvents=0;collapsible=0;recursiveResize=0;shape=mxgraph.aws4.group;grIcon=mxgraph.aws4.group_vpc2;strokeColor=#8C4FFF;fillColor=none;verticalAlign=top;align=left;spacingLeft=30;fontColor=#AAB7B8;dashed=0;" vertex="1" parent="0V02rStvW5Do8ERGr07q-2">
          <mxGeometry x="30" y="30" width="590" height="664.5" as="geometry" />
        </mxCell>
        <mxCell id="0V02rStvW5Do8ERGr07q-12" value="" style="sketch=0;outlineConnect=0;fontColor=#232F3E;gradientColor=none;fillColor=#8C4FFF;strokeColor=none;dashed=0;verticalLabelPosition=bottom;verticalAlign=top;align=center;html=1;fontSize=12;fontStyle=0;aspect=fixed;pointerEvents=1;shape=mxgraph.aws4.internet_gateway;" vertex="1" parent="0V02rStvW5Do8ERGr07q-40">
          <mxGeometry x="263" y="-40" width="78" height="78" as="geometry" />
        </mxCell>
        <mxCell id="0V02rStvW5Do8ERGr07q-36" value="" style="edgeStyle=orthogonalEdgeStyle;html=1;endArrow=block;elbow=vertical;startArrow=none;endFill=1;strokeColor=#545B64;rounded=0;exitX=1;exitY=0.5;exitDx=0;exitDy=0;exitPerimeter=0;" edge="1" parent="0V02rStvW5Do8ERGr07q-2" source="0V02rStvW5Do8ERGr07q-4">
          <mxGeometry width="100" relative="1" as="geometry">
            <mxPoint x="363" y="524.5" as="sourcePoint" />
            <mxPoint x="463" y="584.5" as="targetPoint" />
          </mxGeometry>
        </mxCell>
        <mxCell id="0V02rStvW5Do8ERGr07q-37" value="" style="edgeStyle=orthogonalEdgeStyle;html=1;endArrow=block;elbow=vertical;startArrow=none;endFill=1;strokeColor=#545B64;rounded=0;" edge="1" parent="1" source="0V02rStvW5Do8ERGr07q-1">
          <mxGeometry width="100" relative="1" as="geometry">
            <mxPoint x="490" y="110" as="sourcePoint" />
            <mxPoint x="560" as="targetPoint" />
          </mxGeometry>
        </mxCell>
      </root>
    </mxGraphModel>
  </diagram>
</mxfile>
